<svg width="138" height="44" viewBox="0 0 138 44" fill="none" xmlns="http://www.w3.org/2000/svg">
<path d="M97.7471 40.9475C98.582 40.9475 99.0759 40.315 99.0759 39.3261C99.0759 38.3009 98.5457 37.7047 97.7647 37.7047C97.3181 37.7047 97.0079 37.9027 96.7758 38.2173H96.7648V36.597H96.2808V40.8573H96.7648V40.4525H96.7758C97.0266 40.7979 97.3302 40.9475 97.7471 40.9475ZM97.7119 40.5416C97.0563 40.5416 96.734 40.0235 96.734 39.3316C96.734 38.665 97.0442 38.1161 97.7174 38.1161C98.3015 38.1161 98.582 38.6408 98.582 39.3316C98.582 40.029 98.3015 40.5416 97.7119 40.5416ZM99.8932 41.877C100.268 41.877 100.507 41.745 100.757 41.107L102.074 37.7762H101.562L100.858 39.6957C100.763 39.952 100.655 40.2974 100.655 40.2974H100.644C100.644 40.2974 100.53 39.952 100.435 39.6957L99.7084 37.7762H99.1837L100.387 40.7682L100.268 41.0718C100.149 41.3699 100.012 41.448 99.8096 41.448C99.6965 41.4537 99.5838 41.431 99.4818 41.382H99.4576V41.811C99.5896 41.8649 99.7084 41.877 99.8932 41.877ZM103.31 40.8573H104.12V36.597H103.31V40.8573ZM106.103 40.9475C107.05 40.9475 107.7 40.2435 107.7 39.3316C107.7 38.4197 107.051 37.7168 106.103 37.7168C105.156 37.7168 104.505 38.4208 104.505 39.3316C104.505 40.2446 105.154 40.9475 106.103 40.9475ZM106.103 40.3271C105.602 40.3271 105.328 39.9278 105.328 39.3316C105.328 38.7365 105.602 38.3306 106.103 38.3306C106.598 38.3306 106.877 38.7365 106.877 39.3316C106.877 39.9278 106.598 40.3271 106.103 40.3271ZM109.424 41.9001C109.877 41.9001 110.269 41.7934 110.526 41.5547C110.752 41.3457 110.89 41.0542 110.89 40.6252V37.8004H110.109V38.1227H110.097C109.912 37.8664 109.633 37.7168 109.25 37.7168C108.476 37.7168 107.928 38.3009 107.928 39.2128C107.928 40.1368 108.595 40.6725 109.275 40.6725C109.662 40.6725 109.894 40.5185 110.073 40.315H110.091V40.6494C110.091 41.0663 109.871 41.2874 109.411 41.2874C109.036 41.2874 108.864 41.1378 108.798 40.9464H107.994C108.076 41.5426 108.589 41.9001 109.424 41.9001ZM109.413 40.0235C108.995 40.0235 108.72 39.7199 108.72 39.2007C108.72 38.6881 108.995 38.3669 109.406 38.3669C109.894 38.3669 110.133 38.7475 110.133 39.1952C110.133 39.6484 109.924 40.0235 109.411 40.0235H109.413ZM112.86 40.9475C113.807 40.9475 114.457 40.2435 114.457 39.3316C114.457 38.4197 113.807 37.7168 112.86 37.7168C111.912 37.7168 111.263 38.4208 111.263 39.3316C111.263 40.2446 111.912 40.9475 112.86 40.9475ZM112.86 40.3271C112.359 40.3271 112.084 39.9278 112.084 39.3316C112.084 38.7365 112.359 38.3306 112.86 38.3306C113.354 38.3306 113.634 38.7365 113.634 39.3316C113.634 39.9278 113.354 40.3271 112.86 40.3271ZM114.833 40.8573H115.644V37.8004H114.833V40.8584V40.8573ZM114.833 37.3241H115.644V36.597H114.833V37.323V37.3241ZM116.167 41.8583H116.977V40.513H116.988C117.162 40.7759 117.441 40.9486 117.87 40.9486C118.657 40.9486 119.194 40.3216 119.194 39.3327C119.194 38.379 118.676 37.7179 117.865 37.7179C117.688 37.715 117.513 37.756 117.356 37.8372C117.199 37.9184 117.065 38.0373 116.965 38.1832H116.948V37.8015H116.167V41.8605V41.8583ZM117.698 40.2743C117.215 40.2743 116.959 39.9102 116.959 39.3558C116.959 38.808 117.162 38.3724 117.668 38.3724C118.169 38.3724 118.371 38.7772 118.371 39.3558C118.371 39.9344 118.109 40.2732 117.698 40.2732V40.2743ZM120.811 40.9475C121.573 40.9475 122.098 40.5779 122.098 39.9641C122.098 39.2491 121.531 39.1061 121.019 38.9983C120.584 38.9092 120.179 38.885 120.179 38.6232C120.179 38.4032 120.387 38.2822 120.703 38.2822C121.049 38.2822 121.257 38.4032 121.294 38.7299H122.026C121.967 38.1161 121.52 37.7179 120.715 37.7179C120.018 37.7179 119.47 38.0325 119.47 38.6947C119.47 39.3613 120.006 39.5109 120.554 39.6187C120.971 39.7012 121.359 39.7309 121.359 40.0235C121.359 40.238 121.156 40.3755 120.799 40.3755C120.436 40.3755 120.185 40.2204 120.131 39.8684H119.381C119.428 40.5174 119.923 40.9464 120.811 40.9464V40.9475ZM125.176 40.8573V37.8004H124.365V39.5648C124.365 39.9696 124.132 40.2556 123.751 40.2556C123.406 40.2556 123.244 40.0587 123.244 39.7012V37.8004H122.44V39.8387C122.44 40.5064 122.822 40.9409 123.5 40.9409C123.929 40.9409 124.168 40.7803 124.377 40.5009H124.395V40.8573H125.176ZM125.699 40.8573H126.51V39.083C126.51 38.6771 126.73 38.4153 127.058 38.4153C127.356 38.4153 127.528 38.5946 127.528 38.94V40.8584H128.339V39.083C128.339 38.6771 128.548 38.4153 128.888 38.4153C129.186 38.4153 129.359 38.5946 129.359 38.94V40.8584H130.17V38.8025C130.17 38.1348 129.805 37.7179 129.162 37.7179C128.775 37.7179 128.452 37.9203 128.245 38.2547H128.232C128.159 38.0923 128.04 37.955 127.889 37.8596C127.739 37.7642 127.564 37.7149 127.385 37.7179C127.207 37.7134 127.03 37.757 126.874 37.844C126.718 37.9311 126.588 38.0585 126.498 38.2129H126.48V37.8015H125.699V40.8595V40.8573Z" fill="#E5708C"/>
<path d="M130.329 2.36387C130.329 1.06257 131.384 0.00656895 132.685 0.00656895H134.257C134.882 0.00656895 135.482 0.254927 135.924 0.697006C136.366 1.13909 136.614 1.73867 136.614 2.36387C136.614 2.98906 136.366 3.58865 135.924 4.03073C135.482 4.47281 134.882 4.72117 134.257 4.72117H132.685C132.376 4.72117 132.069 4.66019 131.783 4.54171C131.497 4.42323 131.238 4.24958 131.019 4.03067C130.8 3.81176 130.626 3.55188 130.508 3.26589C130.39 2.97989 130.329 2.67338 130.329 2.36387ZM64.3389 15.719C64.3389 24.3958 57.3055 31.4303 48.6276 31.4303C39.9508 31.4303 32.9163 24.3958 32.9163 15.719C32.9163 7.03997 39.9508 0.00766895 48.6276 0.00766895C57.3055 0.00766895 64.3389 7.03997 64.3389 15.719ZM29.8517 15.6409C30.7207 15.6409 31.4313 16.3449 31.3444 17.2095C31.0475 20.1683 29.9169 22.982 28.0841 25.3238C26.2514 27.6655 23.7917 29.439 20.9909 30.4382C18.1901 31.4374 15.1633 31.6213 12.2622 30.9684C9.36107 30.3155 6.7048 28.8527 4.6021 26.75C2.4994 24.6473 1.03661 21.991 0.383722 19.0899C-0.269162 16.1888 -0.0853225 13.162 0.913874 10.3612C1.91307 7.56043 3.68659 5.10073 6.02832 3.26797C8.37005 1.43521 11.1838 0.304641 14.1426 0.00766895C15.0061 -0.080331 15.7112 0.632469 15.7112 1.49927V14.069C15.7112 14.938 16.4152 15.6409 17.2831 15.6409H29.8517ZM86.3356 34.573C87.5857 34.573 88.7846 35.0696 89.6686 35.9535C90.5525 36.8375 91.0491 38.0364 91.0491 39.2865C91.0491 40.5366 90.5525 41.7355 89.6686 42.6194C88.7846 43.5034 87.5857 44 86.3356 44H78.4805C77.2304 44 76.0315 43.5034 75.1476 42.6194C74.2636 41.7355 73.767 40.5366 73.767 39.2865C73.767 38.0364 74.2636 36.8375 75.1476 35.9535C76.0315 35.0696 77.2304 34.573 78.4805 34.573H86.3356ZM81.6221 31.4303C90.3 31.4303 97.3345 24.3958 97.3345 15.719C97.3383 13.0536 96.6609 10.4315 95.3666 8.10147L97.9626 5.50547C98.2616 5.20631 98.4988 4.85117 98.6606 4.46035C98.8224 4.06953 98.9056 3.65067 98.9055 3.22769C98.9054 2.80471 98.822 2.38589 98.66 1.99515C98.498 1.60441 98.2607 1.24939 97.9615 0.950369C97.6624 0.651349 97.3072 0.414182 96.9164 0.252409C96.5256 0.0906356 96.1067 0.00742463 95.6837 0.00752678C95.2608 0.00762893 94.8419 0.0910422 94.4512 0.253004C94.0605 0.414966 93.7054 0.652305 93.4064 0.951469L91.1404 3.21747C88.4067 1.12957 85.0609 0.00103394 81.621 0.00656895C72.9453 0.00766895 65.9119 7.03997 65.9119 15.719C65.9119 24.3958 72.9464 31.4303 81.6232 31.4303H81.6221ZM130.329 15.719C130.329 24.3958 123.295 31.4303 114.617 31.4303C105.94 31.4303 98.9053 24.3958 98.9053 15.719C98.9053 7.03997 105.94 0.00766895 114.617 0.00766895C123.295 0.00766895 130.329 7.04107 130.329 15.719Z" fill="url(#paint0_linear_5325_150335)"/>
<defs>
<linearGradient id="paint0_linear_5325_150335" x1="-7.55853e-05" y1="17.6" x2="130.9" y2="17.6" gradientUnits="userSpaceOnUse">
<stop stop-color="#64C2DB"/>
<stop offset="0.307" stop-color="#7476ED"/>
<stop offset="0.604" stop-color="#C994DF"/>
<stop offset="1" stop-color="#E56F8C"/>
</linearGradient>
</defs>
</svg>
